<svg xmlns="http://www.w3.org/2000/svg">
    <defs>
        <symbol id="settings">
            <path opacity="0.6" fill-rule="evenodd" clip-rule="evenodd" d="M13.5369 5.84992L12.4531 6.48092C12.5139 6.81222 12.5538 7.15072 12.5538 7.50011C12.5538 7.84934 12.5139 8.18784 12.4531 8.51916L13.5369 9.15012C13.9796 9.40783 14.1312 9.97861 13.8757 10.425L12.9501 12.0417C12.6945 12.488 12.1284 12.641 11.6857 12.3833L10.5907 11.7459C10.0792 12.1849 9.49763 12.5439 8.85126 12.7747V13.5666C8.85126 14.0821 8.43686 14.5 7.92558 14.5H6.07434C5.56322 14.5 5.14882 14.0821 5.14882 13.5666V12.7747C4.50245 12.5439 3.92091 12.1849 3.4093 11.7459L2.3144 12.3833C1.87163 12.641 1.30554 12.488 1.04994 12.0417L0.124336 10.425C-0.131248 9.97861 0.020448 9.40783 0.463136 9.15012L1.54694 8.51916C1.48619 8.18784 1.4463 7.84934 1.4463 7.50011C1.4463 7.15072 1.48619 6.81222 1.54694 6.48092L0.463136 5.84992C0.020448 5.59223 -0.131248 5.02132 0.124336 4.57504L1.04994 2.95842C1.30554 2.51196 1.87163 2.35894 2.3144 2.61677L3.4093 3.25421C3.92091 2.81499 4.50245 2.45618 5.14882 2.22547V1.43341C5.14882 0.917987 5.56322 0.500092 6.07434 0.500092H7.92558C8.43686 0.500092 8.85126 0.917987 8.85126 1.43341V2.22547C9.49763 2.45618 10.0792 2.81499 10.5907 3.25421L11.6857 2.61677C12.1284 2.35894 12.6945 2.51196 12.9501 2.95842L13.8757 4.57504C14.1312 5.02132 13.9796 5.59223 13.5369 5.84992ZM12.8427 4.63746L12.3799 3.82914C12.252 3.60606 11.969 3.52944 11.7477 3.65837L10.4618 4.40701C9.80906 3.66462 8.92702 3.13209 7.92558 2.9271V1.90004C7.92558 1.6423 7.71838 1.43341 7.4628 1.43341H6.5372C6.28152 1.43341 6.07434 1.6423 6.07434 1.90004V2.9271C5.07298 3.13209 4.19094 3.66462 3.5383 4.40701L2.2524 3.65837C2.03101 3.52944 1.74797 3.60606 1.62013 3.82914L1.15741 4.63746C1.02957 4.86068 1.10542 5.1462 1.32672 5.27499L2.61781 6.02659C2.46402 6.49078 2.37189 6.98356 2.37189 7.50011C2.37189 8.01652 2.46402 8.50924 2.61781 8.97354L1.32672 9.72507C1.10542 9.85402 1.02957 10.1394 1.15741 10.3626L1.62013 11.1708C1.74797 11.394 2.03101 11.4705 2.2524 11.3416L3.53822 10.5931C4.19094 11.3355 5.07298 11.868 6.07434 12.073V13.1001C6.07434 13.3578 6.28152 13.5666 6.5372 13.5666H7.4628C7.71838 13.5666 7.92558 13.3578 7.92558 13.1001V12.073C8.92702 11.868 9.80906 11.3355 10.4618 10.5931L11.7477 11.3416C11.969 11.4705 12.252 11.394 12.3799 11.1708L12.8427 10.3626C12.9705 10.1394 12.8946 9.85402 12.6733 9.72507L11.3822 8.97354C11.5361 8.50924 11.6281 8.01652 11.6281 7.50011C11.6281 6.98356 11.5361 6.49078 11.3822 6.02659L12.6733 5.27499C12.8946 5.1462 12.9705 4.86068 12.8427 4.63746ZM7 9.83328C5.72194 9.83328 4.68595 8.78867 4.68595 7.50011C4.68595 6.21127 5.72194 5.16666 7 5.16666C8.27798 5.16666 9.31405 6.21127 9.31405 7.50011C9.31405 8.78867 8.27798 9.83328 7 9.83328ZM7 6.10003C6.23322 6.10003 5.61162 6.72683 5.61162 7.50011C5.61162 8.2732 6.23322 8.89991 7 8.89991C7.76678 8.89991 8.38838 8.2732 8.38838 7.50011C8.38838 6.72683 7.76678 6.10003 7 6.10003Z" fill="currentColor"/>
        </symbol>
        <symbol id="bell">
            <path opacity="0.4" fill-rule="evenodd" clip-rule="evenodd" d="M9.27469 12.1334C9.05948 13.1983 8.12304 13.9999 7.00002 13.9999C5.877 13.9999 4.94056 13.1983 4.72543 12.1334H0.500032L2.35713 8.39999V4.6666C2.35713 2.08934 4.43587 -1.75238e-05 7.00002 -1.75238e-05C9.56424 -1.75238e-05 11.6429 2.08934 11.6429 4.6666V8.39999L13.5 12.1334H9.27469ZM7.00002 13.0667C7.6056 13.0667 8.11569 12.6759 8.30763 12.1334H5.6925C5.88435 12.6759 6.39444 13.0667 7.00002 13.0667ZM10.7143 8.39999V4.6666C10.7143 2.6049 9.05138 0.933346 7.00002 0.933346C4.94865 0.933346 3.28573 2.6049 3.28573 4.6666V8.39999L1.89284 11.2H12.1071L10.7143 8.39999Z" fill="currentColor"/>
        </symbol>
        <symbol id="star">
            <path opacity="0.4" fill-rule="evenodd" clip-rule="evenodd" d="M11.0064 8.93379L11.8336 14L7.50002 11.6071L3.16648 14L3.99359 8.93379L0.50003 5.35675L5.32924 4.62L7.50002 5.50151e-05L9.67088 4.62L14.5 5.35675L11.0064 8.93379ZM9.12831 5.38874L7.50002 1.88675L5.8572 5.38874L2.07224 5.88107L4.87029 8.73728L4.24995 12.4141L7.50002 10.5919L10.7091 12.4279L10.1297 8.75103L12.9004 5.92385L9.12831 5.38874Z" fill="currentColor"/>
        </symbol>
        <symbol id="user">
            <path opacity="0.4" fill-rule="evenodd" clip-rule="evenodd" d="M7.40905 13.5H3.09086C1.66001 13.5 0.500021 12.4087 0.500021 11.0625V9.4375C0.500021 8.37039 1.23359 7.47322 2.24855 7.14305C1.69572 6.44134 1.3636 5.5425 1.3636 4.56256C1.3636 2.31885 3.10363 0.499945 5.25004 0.499945C7.39637 0.499945 9.13631 2.31885 9.13631 4.56256C9.13631 5.5425 8.8042 6.44134 8.25145 7.14305C9.26641 7.47322 9.99998 8.37039 9.99998 9.4375V11.0625C9.99998 12.4087 8.83999 13.5 7.40905 13.5ZM8.27272 4.56256C8.27272 2.76756 6.91947 1.31248 5.25004 1.31248C3.58062 1.31248 2.22735 2.76756 2.22735 4.56256C2.22735 6.35742 3.58062 7.81249 5.25004 7.81249C6.91947 7.81249 8.27272 6.35742 8.27272 4.56256ZM9.13631 9.64067C9.13631 8.77708 8.4397 8.05753 7.50594 7.86622C6.86949 8.34207 6.09218 8.62496 5.25004 8.62496C4.4079 8.62496 3.63051 8.34207 2.99406 7.86622C2.06038 8.05753 1.3636 8.77708 1.3636 9.64067V10.8594C1.3636 11.869 2.31272 12.6876 3.48348 12.6876H7.01652C8.18735 12.6876 9.13631 11.869 9.13631 10.8594V9.64067Z" fill="currentColor"/>
        </symbol>
        <symbol id="search">
            <path opacity="0.5" fill-rule="evenodd" clip-rule="evenodd" d="M14.3638 13.866C14.1868 14.04 13.9001 14.04 13.7231 13.866L10.0951 10.2957C9.08286 11.1041 7.79404 11.5901 6.38879 11.5901C3.13655 11.5901 0.500061 8.99556 0.500061 5.79508C0.500061 2.59454 3.13655 2.99811e-05 6.38879 2.99811e-05C9.64103 2.99811e-05 12.2776 2.59454 12.2776 5.79508C12.2776 7.29154 11.6962 8.65109 10.7499 9.67925L14.3638 13.2354C14.5407 13.4097 14.5407 13.6919 14.3638 13.866ZM6.38879 0.891621C3.63681 0.891621 1.40594 3.08689 1.40594 5.79508C1.40594 8.50324 3.63681 10.6986 6.38879 10.6986C9.14069 10.6986 11.3715 8.50324 11.3715 5.79508C11.3715 3.08689 9.14069 0.891621 6.38879 0.891621Z" fill="currentColor"/>
        </symbol>
        <symbol id="clip">
            <path opacity="0.4" fill-rule="evenodd" clip-rule="evenodd" d="M9.34601e-05 3.75004C9.34601e-05 1.67898 2.01482 -1.19805e-05 4.50002 -1.19805e-05C6.98532 -1.19805e-05 8.99996 1.67898 8.99996 3.75004V15.0001C8.99996 16.3808 7.65681 17.4999 5.99998 17.4999C4.34315 17.4999 3 16.3808 3 15.0001V5.00006H4.50002V15.0001C4.50002 15.6904 5.17153 16.2501 5.99998 16.2501C6.82843 16.2501 7.50002 15.6904 7.50002 15.0001V3.75004C7.50002 2.3693 6.15686 1.25003 4.50002 1.25003C2.84311 1.25003 1.49996 2.3693 1.49996 3.75004V15.0001C1.49996 17.0712 3.5147 18.7501 5.99998 18.7501C8.48526 18.7501 10.5 17.0712 10.5 15.0001V2.50005H11.9999V15.625C11.6302 18.0907 9.05921 20.0001 5.99998 20.0001C2.94091 20.0001 0.369845 18.0907 -8.2016e-05 15.625L9.34601e-05 3.75004Z" fill="currentColor"/>
        </symbol>
        <symbol id="microphone">
            <path opacity="0.4" fill-rule="evenodd" clip-rule="evenodd" d="M5.52282 20C5.18385 20 4.90906 19.7202 4.90906 19.375C4.90906 19.0299 5.18385 18.7501 5.52282 18.7501H6.1364V17.472C3.10671 17.1935 0.541646 14.8741 -1.75238e-05 11.8749H1.22732C1.78591 14.3791 4.12233 16.2499 6.75006 16.2499C9.37772 16.2499 11.7141 14.3791 12.2727 11.8749H13.5C12.9583 14.8741 10.3932 17.1935 7.36364 17.472V18.7501H7.97731C8.31618 18.7501 8.59098 19.0299 8.59098 19.375C8.59098 19.7202 8.31618 20 7.97731 20H5.52282ZM6.75006 15.0001C4.37768 15.0001 2.45456 13.0413 2.45456 10.6251V4.37517C2.45456 1.95889 4.37768 -5.65052e-05 6.75006 -5.65052e-05C9.12227 -5.65052e-05 11.0455 1.95889 11.0455 4.37517V10.6251C11.0455 13.0413 9.12227 15.0001 6.75006 15.0001ZM9.81822 4.37517C9.81822 2.64926 8.44452 1.24997 6.75006 1.24997C5.05551 1.24997 3.68182 2.64926 3.68182 4.37517V10.6251C3.68182 12.351 5.05551 13.75 6.75006 13.75C8.44452 13.75 9.81822 12.351 9.81822 10.6251V4.37517Z" fill="currentColor"/>
        </symbol>
        <symbol width="6" height="13" viewBox="0 0 6 13" id="facebook">
            <path opacity="0.5" fill-rule="evenodd" clip-rule="evenodd" d="M1.49374 12.4833H3.67461V6.43104H5.19618L5.3584 4.405H3.67461C3.67461 4.405 3.67461 3.64854 3.67461 3.25095C3.67461 2.7733 3.7614 2.5842 4.17813 2.5842C4.5135 2.5842 5.3584 2.5842 5.3584 2.5842V0.481531C5.3584 0.481531 4.11396 0.481531 3.84827 0.481531C2.2254 0.481531 1.49374 1.27332 1.49374 2.78946C1.49374 4.11002 1.49374 4.405 1.49374 4.405H0.359534V6.45673H1.49374V12.4833Z" fill="black"/>
        </symbol>
        <symbol id="twitter">
            <path opacity="0.5" fill-rule="evenodd" clip-rule="evenodd" d="M0.96691 8.97588C2.05697 9.62061 3.35155 9.99688 4.74228 9.99688C9.31531 9.99688 11.8986 6.43349 11.7431 3.23743C12.2241 2.91719 12.6418 2.51698 12.9719 2.06117C12.5301 2.24194 12.0554 2.3642 11.5573 2.41895C12.0657 2.13808 12.4563 1.69267 12.6402 1.16186C12.1643 1.42231 11.6371 1.61152 11.0762 1.71327C10.6271 1.27162 9.98706 0.995726 9.27843 0.995726C7.68886 0.995726 6.52019 2.36448 6.87909 3.78608C4.83215 3.69115 3.01736 2.78649 1.80287 1.41177C1.15767 2.43306 1.46817 3.76934 2.56507 4.44535C2.16119 4.43368 1.78126 4.33125 1.44914 4.16125C1.42268 5.21397 2.24014 6.1984 3.42473 6.41822C3.07811 6.50501 2.6985 6.52504 2.31273 6.45704C2.62591 7.35969 3.53564 8.01649 4.61327 8.03484C3.57795 8.78376 2.27368 9.11817 0.96691 8.97588Z" fill="currentColor"/>
        </symbol>
        <symbol id="instagramm">
            <path opacity="0.5" fill-rule="evenodd" clip-rule="evenodd" d="M8.23184 4.335C7.69787 3.77275 6.95636 3.42348 6.13575 3.42348C5.31513 3.42348 4.57355 3.77275 4.04007 4.335H0.394543V2.78479C0.394543 1.98929 0.774221 1.28629 1.35518 0.858856V3.4003H1.8214V0.59454C1.92704 0.550624 2.03686 0.514485 2.14975 0.487296V3.4003H2.61589V0.425884C2.62377 0.4258 2.63155 0.425576 2.63932 0.425352C2.64906 0.425071 2.65878 0.424791 2.66862 0.424791H2.9379V3.4003H3.40412V0.424791H9.61813C10.8738 0.424791 11.8922 1.48146 11.8922 2.78479H11.8919V4.335H8.23184ZM9.25874 1.41151C9.05704 1.41151 8.89373 1.58107 8.89373 1.79007V3.09431C8.89373 3.30331 9.05704 3.47287 9.25874 3.47287H10.4878C10.6894 3.47287 10.8527 3.30331 10.8527 3.09431V1.79007C10.8527 1.58107 10.6894 1.41151 10.4878 1.41151H9.25874ZM7.0706 4.335C7.27438 4.43132 7.46195 4.55782 7.62826 4.70884C8.10224 5.14061 8.40232 5.77305 8.40232 6.47714C8.40232 7.77451 7.3856 8.82962 6.13575 8.82962C4.88613 8.82962 3.86942 7.77451 3.86942 6.47714C3.86942 5.77305 4.1695 5.14061 4.64348 4.70884C4.80953 4.55782 4.99728 4.43132 5.20089 4.335C5.4862 4.20052 5.80271 4.12476 6.13575 4.12476C6.46903 4.12476 6.78554 4.20052 7.0706 4.335ZM4.46814 6.47714C4.46814 7.43735 5.218 8.21568 6.14317 8.21568C7.06834 8.21568 7.81827 7.43735 7.81827 6.47714C7.81827 5.51713 7.06834 4.73888 6.14317 4.73888C5.218 4.73888 4.46814 5.51713 4.46814 6.47714ZM9.61813 12.4205H2.66862C1.41292 12.4205 0.394543 11.3641 0.394543 10.0605V4.70884H3.73825C3.39577 5.20793 3.19392 5.81781 3.19392 6.47714C3.19392 8.16352 4.51112 9.5309 6.13575 9.5309C7.76054 9.5309 9.07791 8.16352 9.07791 6.47714C9.07791 5.81781 8.87572 5.20793 8.53349 4.70884H11.8922V10.0605C11.8922 11.3641 10.8741 12.4205 9.61813 12.4205Z" fill="currentColor"/>
        </symbol>
        <symbol id="linked-in">
            <path opacity="0.5" fill-rule="evenodd" clip-rule="evenodd" d="M1.79959 3.6122C2.54101 3.6122 3.14208 3.00639 3.14208 2.25956C3.14208 1.51255 2.54101 0.907112 1.79959 0.907112C1.05825 0.907112 0.457187 1.51255 0.457187 2.25956C0.457187 3.00639 1.05825 3.6122 1.79959 3.6122ZM0.675475 11.9023H2.94548V4.57212H0.675475V11.9023ZM7.95728 6.41019C7.04879 6.41019 6.57406 7.02374 6.57406 8.05456V11.9023H4.39677V4.57212H6.57406V5.55941C6.57406 5.55941 7.22886 4.3483 8.78397 4.3483C10.3392 4.3483 11.4523 5.29759 11.4523 7.26101V11.9023H9.1932V8.05456C9.1932 6.99909 8.79215 6.41019 7.95728 6.41019Z" fill="currentColor"/>
        </symbol>
    </defs>
</svg>
